<svg width="182" height="182" viewBox="0 0 182 182" fill="none" xmlns="http://www.w3.org/2000/svg">
<path d="M181 91C181 140.706 140.706 181 91 181C41.2944 181 1 140.706 1 91C1 41.2944 41.2944 1 91 1C140.706 1 181 41.2944 181 91Z" fill="#222222"/>
<path fill-rule="evenodd" clip-rule="evenodd" d="M132.825 29.0245C130.629 28.7847 128.655 30.3706 128.415 32.5667L120.319 106.713C111.962 101.659 96.6336 101.301 80.7182 106.623C59.2733 113.795 44.8838 128.565 48.5785 139.613C52.2731 150.66 72.6529 153.802 94.0978 146.63C112.669 140.419 125.949 128.51 126.775 118.256C127.039 117.794 127.214 117.271 127.276 116.708L136.368 33.435C136.607 31.2389 135.022 29.2642 132.825 29.0245Z" fill="url(#paint0_linear_58_7)"/>
<defs>
<linearGradient id="paint0_linear_58_7" x1="91.6958" y1="150.478" x2="91.6958" y2="28" gradientUnits="userSpaceOnUse">
<stop stop-color="#6FEBE9"/>
<stop offset="0.995" stop-color="#22DDFF"/>
</linearGradient>
</defs>
</svg>
